<svg width="84" height="74" viewBox="0 0 84 74" fill="none" xmlns="http://www.w3.org/2000/svg">
<g clip-path="url(#clip0)">
<path d="M70.584 11C70.584 9.61929 69.4647 8.5 68.084 8.5H45.584C44.2032 8.5 43.084 9.61929 43.084 11C43.084 12.3807 44.2032 13.5 45.584 13.5H65.584V33.5C65.584 34.8807 66.7032 36 68.084 36C69.4647 36 70.584 34.8807 70.584 33.5V11ZM47.8517 34.7678L69.8517 12.7678L66.3162 9.23223L44.3162 31.2322L47.8517 34.7678Z" fill="black"/>
<path d="M12.5 11C12.5 9.61929 13.6193 8.5 15 8.5H37.5C38.8807 8.5 40 9.61929 40 11C40 12.3807 38.8807 13.5 37.5 13.5H17.5V33.5C17.5 34.8807 16.3807 36 15 36C13.6193 36 12.5 34.8807 12.5 33.5V11ZM35.2322 34.7678L13.2322 12.7678L16.7678 9.23223L38.7678 31.2322L35.2322 34.7678Z" fill="black"/>
<path d="M12.5 63C12.5 64.3807 13.6193 65.5 15 65.5H37.5C38.8807 65.5 40 64.3807 40 63C40 61.6193 38.8807 60.5 37.5 60.5H17.5V40.5C17.5 39.1193 16.3807 38 15 38C13.6193 38 12.5 39.1193 12.5 40.5V63ZM35.2322 39.2322L13.2322 61.2322L16.7678 64.7678L38.7678 42.7678L35.2322 39.2322Z" fill="black"/>
<path d="M70.5 63C70.5 64.3807 69.3807 65.5 68 65.5H45.5C44.1193 65.5 43 64.3807 43 63C43 61.6193 44.1193 60.5 45.5 60.5H65.5V40.5C65.5 39.1193 66.6193 38 68 38C69.3807 38 70.5 39.1193 70.5 40.5V63ZM47.7678 39.2322L69.7678 61.2322L66.2322 64.7678L44.2322 42.7678L47.7678 39.2322Z" fill="black"/>
</g>
<defs>
<clipPath id="clip0">
<rect width="84" height="74" fill="white"/>
</clipPath>
</defs>
</svg>
