<svg width="84" height="74" viewBox="0 0 84 74" fill="none" xmlns="http://www.w3.org/2000/svg">
<g clip-path="url(#clip0)">
<path d="M75.584 6C75.584 4.61929 74.4647 3.5 73.084 3.5H50.584C49.2032 3.5 48.084 4.61929 48.084 6C48.084 7.38071 49.2032 8.5 50.584 8.5H70.584V28.5C70.584 29.8807 71.7032 31 73.084 31C74.4647 31 75.584 29.8807 75.584 28.5V6ZM52.8517 29.7678L74.8517 7.76777L71.3162 4.23223L49.3162 26.2322L52.8517 29.7678Z" fill="black"/>
<path d="M7.5 6C7.5 4.61929 8.61929 3.5 10 3.5H32.5C33.8807 3.5 35 4.61929 35 6C35 7.38071 33.8807 8.5 32.5 8.5H12.5V28.5C12.5 29.8807 11.3807 31 10 31C8.61929 31 7.5 29.8807 7.5 28.5V6ZM30.2322 29.7678L8.23223 7.76777L11.7678 4.23223L33.7678 26.2322L30.2322 29.7678Z" fill="black"/>
<path d="M7.5 68C7.5 69.3807 8.61929 70.5 10 70.5H32.5C33.8807 70.5 35 69.3807 35 68C35 66.6193 33.8807 65.5 32.5 65.5H12.5V45.5C12.5 44.1193 11.3807 43 10 43C8.61929 43 7.5 44.1193 7.5 45.5V68ZM30.2322 44.2322L8.23223 66.2322L11.7678 69.7678L33.7678 47.7678L30.2322 44.2322Z" fill="black"/>
<path d="M75.5 68C75.5 69.3807 74.3807 70.5 73 70.5H50.5C49.1193 70.5 48 69.3807 48 68C48 66.6193 49.1193 65.5 50.5 65.5H70.5V45.5C70.5 44.1193 71.6193 43 73 43C74.3807 43 75.5 44.1193 75.5 45.5V68ZM52.7678 44.2322L74.7678 66.2322L71.2322 69.7678L49.2322 47.7678L52.7678 44.2322Z" fill="black"/>
</g>
<defs>
<clipPath id="clip0">
<rect width="84" height="74" fill="white"/>
</clipPath>
</defs>
</svg>
