<svg width="104" height="100" viewBox="0 0 104 100" fill="none" xmlns="http://www.w3.org/2000/svg">
<g clip-path="url(#clip0)">
<path d="M95.5 15C95.5 13.6193 94.3807 12.5 93 12.5H70.5C69.1193 12.5 68 13.6193 68 15C68 16.3807 69.1193 17.5 70.5 17.5H90.5V37.5C90.5 38.8807 91.6193 40 93 40C94.3807 40 95.5 38.8807 95.5 37.5V15ZM80.7678 30.7678L94.7678 16.7678L91.2322 13.2322L77.2322 27.2322L80.7678 30.7678Z" fill="black"/>
<path d="M8.5 86C8.5 87.3807 9.61929 88.5 11 88.5H33.5C34.8807 88.5 36 87.3807 36 86C36 84.6193 34.8807 83.5 33.5 83.5H13.5V63.5C13.5 62.1193 12.3807 61 11 61C9.61929 61 8.5 62.1193 8.5 63.5V86ZM23.2322 70.2322L9.23223 84.2322L12.7678 87.7678L26.7678 73.7678L23.2322 70.2322Z" fill="black"/>
<path d="M74.1447 30.5823H29.8553C28.0764 30.5823 26.6342 32.0217 26.6342 33.797V66.7487C26.6342 68.524 28.0764 69.9633 29.8553 69.9633H74.1447C75.9236 69.9633 77.3659 68.524 77.3659 66.7486V33.797C77.3659 32.0217 75.9237 30.5823 74.1447 30.5823ZM74.1447 33.797V57.1773L67.7968 51.4172C66.8426 50.5517 65.3754 50.5862 64.4638 51.4968L58.0393 57.9079L45.3719 42.8064C44.4144 41.6652 42.6605 41.654 41.6886 42.7815L29.8553 56.5071V33.797H74.1447ZM60.4553 42.2358C60.4553 39.7942 62.4377 37.8155 64.8841 37.8155C67.3306 37.8155 69.3131 39.7942 69.3131 42.2358C69.3131 44.6775 67.3307 46.6561 64.8841 46.6561C62.4378 46.6562 60.4553 44.6775 60.4553 42.2358Z" fill="black"/>
</g>
<defs>
<clipPath id="clip0">
<rect width="104" height="100" fill="white"/>
</clipPath>
</defs>
</svg>
