<svg width="100" height="100" viewBox="0 0 100 100" fill="none" xmlns="http://www.w3.org/2000/svg">
    <g clip-path="url(#clip0)">
    <path d="M0.500002 96C0.500002 97.3807 1.61929 98.5 3 98.5H25.5C26.8807 98.5 28 97.3807 28 96C28 94.6193 26.8807 93.5 25.5 93.5H5.5V73.5C5.5 72.1193 4.38071 71 3 71C1.61929 71 0.500002 72.1193 0.500002 73.5L0.500002 96ZM32.2322 63.2322L1.23224 94.2322L4.76777 97.7678L35.7678 66.7678L32.2322 63.2322Z" fill="black"/>
    <path d="M99.5 3C99.5 1.61929 98.3807 0.500002 97 0.500002L74.5 0.500002C73.1193 0.500002 72 1.61929 72 3C72 4.38071 73.1193 5.5 74.5 5.5H94.5V25.5C94.5 26.8807 95.6193 28 97 28C98.3807 28 99.5 26.8807 99.5 25.5V3ZM67.7678 35.7678L98.7678 4.76777L95.2322 1.23224L64.2322 32.2322L67.7678 35.7678Z" fill="black"/>
    </g>
    <defs>
    <clipPath id="clip0">
    <rect width="100" height="100" fill="white"/>
    </clipPath>
    </defs>
    </svg>
